<svg width="24" height="24" viewBox="0 0 24 24" fill="none" xmlns="http://www.w3.org/2000/svg">
<g id="ic/plus">
<path id="Vector" d="M13.1248 10.875L13.1248 4.57737C13.125 4.27875 13.0067 3.99225 12.7957 3.7809C12.5847 3.56956 12.2984 3.45068 11.9998 3.45042C11.7012 3.45015 11.4147 3.56853 11.2034 3.7795C10.992 3.99047 10.8731 4.27676 10.8729 4.57538L10.8729 10.873L4.5752 10.873C4.27631 10.873 3.98966 10.9918 3.77832 11.2031C3.56698 11.4145 3.44824 11.7011 3.44824 12C3.44824 12.2989 3.56698 12.5855 3.77832 12.7969C3.98966 13.0082 4.27631 13.127 4.5752 13.127L10.8729 13.127L10.8729 19.4246C10.8729 19.7235 10.9916 20.0102 11.2029 20.2215C11.4143 20.4328 11.7009 20.5516 11.9998 20.5516C12.2987 20.5516 12.5853 20.4328 12.7967 20.2215C13.008 20.0102 13.1268 19.7235 13.1268 19.4246L13.1268 13.127H19.4244C19.7233 13.127 20.01 13.0082 20.2213 12.7969C20.4327 12.5855 20.5514 12.2989 20.5514 12C20.5514 11.7011 20.4327 11.4145 20.2213 11.2031C20.01 10.9918 19.7233 10.873 19.4244 10.873L13.1248 10.875Z" fill="#232323"/>
</g>
</svg>
