<svg width="201" height="40" viewBox="0 0 201 40" fill="none" xmlns="http://www.w3.org/2000/svg">
<g id="logo-sideprojects">
<g id="vector-logo">
<path d="M21.6476 14.0013L24.2437 14.5054L26.8146 14.0013V28.6201H21.6476V14.0013Z" fill="#F0FA77"/>
<path d="M24.2185 12.8167C23.3279 12.8167 22.6053 12.5983 22.0508 12.1614C21.4963 11.7077 21.2191 11.0944 21.2191 10.3214C21.2191 9.5653 21.4963 8.96039 22.0508 8.5067C22.6053 8.05302 23.3279 7.82617 24.2185 7.82617C25.1426 7.82617 25.8736 8.05302 26.4113 8.5067C26.9658 8.96039 27.243 9.5653 27.243 10.3214C27.243 11.0944 26.9658 11.7077 26.4113 12.1614C25.8736 12.5983 25.1426 12.8167 24.2185 12.8167Z" fill="#F0FA77"/>
<path d="M0 22.4197H5.31821C5.40223 22.9406 5.64587 23.3943 6.04915 23.7808C6.45243 24.1673 6.99013 24.4697 7.66226 24.6882C8.35119 24.8898 9.15774 24.9906 10.0819 24.9906C11.359 24.9906 12.3672 24.831 13.1065 24.5117C13.8458 24.1757 14.2155 23.6884 14.2155 23.0499C14.2155 22.5626 14.0055 22.1845 13.5854 21.9157C13.1653 21.6468 12.3588 21.4536 11.1657 21.3359L7.63705 21.0083C5.03256 20.773 3.1422 20.1849 1.96597 19.2439C0.78975 18.2862 0.201638 17.0007 0.201638 15.3876C0.201638 14.077 0.57971 12.9679 1.33585 12.0606C2.1088 11.1532 3.18421 10.4727 4.56207 10.019C5.95673 9.5485 7.57824 9.31325 9.42659 9.31325C11.2413 9.31325 12.8544 9.5737 14.2659 10.0946C15.6774 10.5987 16.7948 11.3212 17.6181 12.2622C18.4583 13.2032 18.912 14.2954 18.9792 15.5388H13.6862C13.619 15.0852 13.4005 14.6987 13.0309 14.3794C12.678 14.0434 12.1907 13.7913 11.569 13.6233C10.9473 13.4384 10.1995 13.346 9.32577 13.346C8.14955 13.346 7.21697 13.5057 6.52804 13.8249C5.83911 14.1274 5.49464 14.5811 5.49464 15.186C5.49464 15.6229 5.69628 15.9757 6.09956 16.2446C6.51964 16.5134 7.26738 16.6983 8.34279 16.7991L12.0983 17.1771C13.8962 17.3452 15.3329 17.6392 16.4083 18.0593C17.4837 18.4626 18.2651 19.0255 18.7524 19.748C19.2397 20.4706 19.4833 21.3695 19.4833 22.445C19.4833 23.7724 19.0884 24.9318 18.2987 25.9232C17.5089 26.8978 16.3999 27.6623 14.9716 28.2168C13.5434 28.7545 11.8799 29.0234 9.9811 29.0234C8.03193 29.0234 6.3096 28.7545 4.81412 28.2168C3.33543 27.6623 2.17601 26.8894 1.33585 25.898C0.495694 24.8898 0.0504096 23.7304 0 22.4197Z" fill="#F0FA77"/>
<path fill-rule="evenodd" clip-rule="evenodd" d="M42.367 25.5559L42.7536 28.6201H48.0718L47.1645 21.0335L48.6515 9.21244H43.3081L42.3451 17.1977C41.6612 16.1547 40.8144 15.3413 39.8047 14.7575C38.7461 14.119 37.5362 13.7997 36.1752 13.7997C34.7637 13.7997 33.5203 14.119 32.4449 14.7575C31.3863 15.396 30.5545 16.2866 29.9496 17.4292C29.3447 18.5718 29.0422 19.9077 29.0422 21.4368C29.0422 22.9322 29.3447 24.2597 29.9496 25.4191C30.5545 26.5617 31.3863 27.4523 32.4449 28.0908C33.5203 28.7125 34.7637 29.0234 36.1752 29.0234C37.5362 29.0234 38.7461 28.7125 39.8047 28.0908C40.8368 27.478 41.6909 26.633 42.367 25.5559ZM34.6881 23.3271C34.4024 22.7726 34.2596 22.1425 34.2596 21.4368C34.2596 20.7142 34.4024 20.0757 34.6881 19.5212C34.9906 18.9667 35.4022 18.5298 35.9231 18.2105C36.444 17.8913 37.0405 17.7317 37.7127 17.7317C38.4184 17.7317 39.0821 17.8913 39.7038 18.2105C40.3256 18.5298 40.8717 18.9667 41.3422 19.5212C41.8126 20.0757 42.1655 20.7142 42.4008 21.4368C42.1655 22.1425 41.8126 22.7726 41.3422 23.3271C40.8717 23.8816 40.3256 24.3185 39.7038 24.6378C39.0821 24.9402 38.4184 25.0915 37.7127 25.0915C37.0405 25.0915 36.444 24.9402 35.9231 24.6378C35.4022 24.3185 34.9906 23.8816 34.6881 23.3271Z" fill="#F0FA77"/>
<path fill-rule="evenodd" clip-rule="evenodd" d="M58.865 29.0234C57.1175 29.0234 55.5548 28.7041 54.1769 28.0656C52.8158 27.4271 51.7404 26.5365 50.9507 25.3939C50.1609 24.2345 49.7661 22.8902 49.7661 21.3611C49.7661 19.8657 50.1441 18.555 50.9003 17.4292C51.6564 16.2866 52.6898 15.396 54.0005 14.7575C55.3279 14.119 56.8234 13.7997 58.4869 13.7997C60.2177 13.7997 61.6879 14.1778 62.8978 14.9339C64.1244 15.6733 65.0654 16.7235 65.7207 18.0845C66.3928 19.4456 66.7289 21.0503 66.7289 22.8986H55.3435C55.4085 23.0385 55.4817 23.173 55.5632 23.3019C55.9833 23.9236 56.5882 24.4025 57.3779 24.7386C58.1845 25.0747 59.1675 25.2427 60.3269 25.2427C61.3855 25.2427 62.4357 25.1083 63.4775 24.8394C64.5361 24.5538 65.4939 24.1589 66.3508 23.6548V26.9314C65.3594 27.6035 64.2252 28.1244 62.9482 28.4941C61.6879 28.847 60.3269 29.0234 58.865 29.0234ZM55.4119 19.1431C55.2934 19.3474 55.198 19.5658 55.1259 19.7984H61.9333C61.8435 19.5125 61.7281 19.252 61.5871 19.0171C61.2847 18.4962 60.8814 18.1013 60.3773 17.8325C59.89 17.5636 59.3019 17.4292 58.613 17.4292C57.8568 17.4292 57.2099 17.5804 56.6722 17.8829C56.1345 18.1853 55.7144 18.6054 55.4119 19.1431Z" fill="#F0FA77"/>
<path fill-rule="evenodd" clip-rule="evenodd" d="M83.7815 10.5231C82.6389 9.98538 81.2778 9.71653 79.6983 9.71653H69.0871V28.6201H74.3045V22.7474H79.6983C81.2778 22.7474 82.6389 22.4786 83.7815 21.9409C84.9409 21.4032 85.8231 20.647 86.428 19.6724C87.0329 18.681 87.3354 17.5384 87.3354 16.2446C87.3354 14.9339 87.0329 13.7913 86.428 12.8167C85.8231 11.8253 84.9409 11.0608 83.7815 10.5231ZM74.3045 18.5634H79.3707C80.2108 18.5634 80.8662 18.3618 81.3366 17.9585C81.8071 17.5384 82.0424 16.9671 82.0424 16.2446C82.0424 15.5052 81.8071 14.9339 81.3366 14.5306C80.8662 14.1106 80.2108 13.9005 79.3707 13.9005H74.3045V18.5634Z" fill="#F0FA77"/>
<path d="M88.5818 14.2282H93.8244L94.4629 18.0591C94.7098 17.3399 95.0178 16.693 95.3871 16.1185C95.8576 15.396 96.4373 14.8331 97.1263 14.4298C97.8152 14.0097 98.6554 13.7997 99.6468 13.7997C99.9324 13.7997 100.226 13.8165 100.529 13.8501C100.831 13.8837 101.134 13.9341 101.436 14.0013V18.387C100.932 18.2862 100.453 18.2189 99.9996 18.1853C99.5627 18.1349 99.1594 18.1097 98.7898 18.1097C98.0504 18.1097 97.3699 18.261 96.7482 18.5634C96.1265 18.8491 95.6224 19.328 95.2359 20.0001C94.8662 20.6722 94.6814 21.5712 94.6814 22.697V28.6201H89.5396V19.0675L88.5818 14.2282Z" fill="#F0FA77"/>
<path fill-rule="evenodd" clip-rule="evenodd" d="M106.53 28.0908C107.908 28.7125 109.521 29.0234 111.37 29.0234C113.201 29.0234 114.806 28.7125 116.184 28.0908C117.579 27.4523 118.662 26.5617 119.435 25.4191C120.208 24.2597 120.595 22.9322 120.595 21.4368C120.595 19.9077 120.208 18.5718 119.435 17.4292C118.662 16.2866 117.579 15.396 116.184 14.7575C114.806 14.119 113.201 13.7997 111.37 13.7997C109.521 13.7997 107.908 14.119 106.53 14.7575C105.153 15.396 104.077 16.2866 103.304 17.4292C102.531 18.5718 102.145 19.9077 102.145 21.4368C102.145 22.9322 102.531 24.2597 103.304 25.4191C104.077 26.5617 105.153 27.4523 106.53 28.0908ZM113.512 24.7638C112.924 25.0662 112.21 25.2175 111.37 25.2175C110.53 25.2175 109.807 25.0662 109.202 24.7638C108.597 24.4613 108.135 24.0245 107.816 23.4531C107.497 22.8818 107.337 22.2013 107.337 21.4116C107.337 20.6218 107.497 19.9497 107.816 19.3952C108.135 18.8239 108.597 18.387 109.202 18.0845C109.807 17.7821 110.53 17.6308 111.37 17.6308C112.21 17.6308 112.924 17.7821 113.512 18.0845C114.117 18.387 114.579 18.8239 114.898 19.3952C115.218 19.9497 115.377 20.6302 115.377 21.4368C115.377 22.2097 115.218 22.8818 114.898 23.4531C114.579 24.0245 114.117 24.4613 113.512 24.7638Z" fill="#F0FA77"/>
<path fill-rule="evenodd" clip-rule="evenodd" d="M139.173 29.0234C137.425 29.0234 135.863 28.7041 134.485 28.0656C133.124 27.4271 132.048 26.5365 131.258 25.3939C130.469 24.2345 130.074 22.8902 130.074 21.3611C130.074 19.8657 130.452 18.555 131.208 17.4292C131.964 16.2866 132.998 15.396 134.308 14.7575C135.636 14.119 137.131 13.7997 138.795 13.7997C140.525 13.7997 141.996 14.1778 143.206 14.9339C144.432 15.6733 145.373 16.7235 146.028 18.0845C146.701 19.4456 147.037 21.0503 147.037 22.8986H135.651C135.716 23.0385 135.79 23.173 135.871 23.3019C136.291 23.9236 136.896 24.4025 137.686 24.7386C138.492 25.0747 139.475 25.2427 140.635 25.2427C141.693 25.2427 142.743 25.1083 143.785 24.8394C144.844 24.5538 145.802 24.1589 146.659 23.6548V26.9314C145.667 27.6035 144.533 28.1244 143.256 28.4941C141.996 28.847 140.635 29.0234 139.173 29.0234ZM135.72 19.1431C135.601 19.3474 135.506 19.5658 135.434 19.7984H142.241C142.151 19.5125 142.036 19.252 141.895 19.0171C141.592 18.4962 141.189 18.1013 140.685 17.8325C140.198 17.5636 139.61 17.4292 138.921 17.4292C138.165 17.4292 137.518 17.5804 136.98 17.8829C136.442 18.1853 136.022 18.6054 135.72 19.1431Z" fill="#F0FA77"/>
<path d="M164.992 25.9484C165.798 24.9738 166.269 23.8396 166.403 22.5458H161.287C161.119 23.3523 160.69 23.9992 160.001 24.4865C159.329 24.9738 158.506 25.2175 157.531 25.2175C156.775 25.2175 156.111 25.0747 155.54 24.789C154.986 24.4865 154.549 24.0581 154.229 23.5036C153.927 22.9322 153.776 22.2433 153.776 21.4368C153.776 20.6134 153.927 19.9245 154.229 19.37C154.549 18.7987 154.986 18.3702 155.54 18.0845C156.111 17.7821 156.775 17.6308 157.531 17.6308C158.506 17.6308 159.329 17.8661 160.001 18.3366C160.674 18.7903 161.102 19.4456 161.287 20.3025H166.403C166.269 18.9919 165.798 17.8577 164.992 16.8999C164.185 15.9253 163.135 15.1692 161.841 14.6315C160.564 14.077 159.128 13.7997 157.531 13.7997C155.767 13.7997 154.213 14.1274 152.868 14.7827C151.524 15.4212 150.474 16.3118 149.718 17.4544C148.962 18.597 148.584 19.9245 148.584 21.4368C148.584 22.9322 148.962 24.2513 149.718 25.3939C150.474 26.5365 151.524 27.4271 152.868 28.0656C154.213 28.7041 155.767 29.0234 157.531 29.0234C159.128 29.0234 160.564 28.7545 161.841 28.2168C163.135 27.6791 164.185 26.923 164.992 25.9484Z" fill="#F0FA77"/>
<path d="M166.981 18.0341V15.7909L169.905 14.6063L172.123 10.3467H175.046V14.2282H181.095V18.0341H175.046V22.2685C175.046 23.3103 175.256 24.0413 175.676 24.4613C176.096 24.8814 176.861 25.0915 177.97 25.0915C178.676 25.0915 179.297 25.0326 179.835 24.915C180.39 24.7806 180.894 24.6126 181.347 24.4109V28.2925C180.843 28.4773 180.18 28.6453 179.356 28.7966C178.533 28.9478 177.684 29.0234 176.811 29.0234C175.214 29.0234 173.904 28.7798 172.879 28.2925C171.87 27.8052 171.123 27.1078 170.635 26.2005C170.148 25.2763 169.905 24.2009 169.905 22.9743V18.0341H166.981Z" fill="#F0FA77"/>
<path d="M199.007 26.7298C199.679 25.9736 200.015 25.041 200.015 23.932C200.015 23.0751 199.813 22.3357 199.41 21.714C199.007 21.0923 198.326 20.5966 197.368 20.2269C196.411 19.8405 195.1 19.5968 193.437 19.496L190.084 19.2439C189.278 19.1767 188.723 19.0591 188.421 18.8911C188.135 18.723 187.992 18.4962 187.992 18.2105C187.992 17.8409 188.228 17.5552 188.698 17.3536C189.185 17.1519 189.891 17.0511 190.815 17.0511C191.605 17.0511 192.252 17.1351 192.756 17.3032C193.26 17.4712 193.655 17.6896 193.941 17.9585C194.226 18.2105 194.411 18.4962 194.495 18.8155H199.713C199.595 17.8073 199.158 16.9335 198.402 16.1942C197.646 15.438 196.638 14.8499 195.377 14.4298C194.117 14.0097 192.68 13.7997 191.067 13.7997C189.437 13.7997 188.009 13.9845 186.782 14.3542C185.573 14.7071 184.623 15.2448 183.934 15.9673C183.262 16.6731 182.926 17.572 182.926 18.6642C182.926 19.4708 183.145 20.1933 183.581 20.8318C184.018 21.4536 184.732 21.9661 185.724 22.3693C186.732 22.7558 188.085 23.0079 189.782 23.1255L192.328 23.3271C193.302 23.4111 193.991 23.5372 194.394 23.7052C194.798 23.8564 194.999 24.0917 194.999 24.4109C194.999 24.8142 194.73 25.1167 194.193 25.3183C193.672 25.5199 192.899 25.6208 191.874 25.6208C191.084 25.6208 190.404 25.5535 189.832 25.4191C189.261 25.2679 188.799 25.0578 188.446 24.789C188.11 24.5033 187.883 24.1673 187.765 23.7808H182.548C182.598 24.8226 183.002 25.7384 183.758 26.5281C184.514 27.3179 185.564 27.9312 186.908 28.3681C188.27 28.805 189.849 29.0234 191.647 29.0234C193.395 29.0234 194.89 28.8302 196.133 28.4437C197.377 28.0572 198.335 27.4859 199.007 26.7298Z" fill="#F0FA77"/>
<path d="M125.318 12.8167C124.428 12.8167 123.705 12.5983 123.151 12.1614C122.596 11.7077 122.319 11.0944 122.319 10.3214C122.319 9.5653 122.596 8.96039 123.151 8.5067C123.705 8.05302 124.428 7.82617 125.318 7.82617C126.242 7.82617 126.973 8.05302 127.511 8.5067C128.066 8.96039 128.343 9.5653 128.343 10.3214C128.343 11.0944 128.066 11.7077 127.511 12.1614C126.973 12.5983 126.242 12.8167 125.318 12.8167Z" fill="#F0FA77"/>
<path d="M122.209 36.816C121.391 36.816 120.703 36.7488 120.145 36.6143C119.575 36.4901 119.006 36.278 118.437 35.978L119.446 32.2066C119.715 32.3411 119.979 32.4445 120.238 32.517C120.496 32.5894 120.786 32.6256 121.107 32.6256C121.697 32.6256 122.126 32.46 122.395 32.1289C122.664 31.8082 122.798 31.3219 122.798 30.6701L122.722 14.0013L125.369 14.5054L128.015 14.0013L127.965 30.996C127.965 32.1548 127.651 33.1688 127.175 34.0379C126.71 34.9174 126.047 35.6003 125.189 36.0866C124.34 36.5729 123.347 36.816 122.209 36.816Z" fill="#F0FA77"/>
</g>
</g>
</svg>
